<?xml version="1.0" standalone="no"?>
<!DOCTYPE svg PUBLIC "-//W3C//DTD SVG 20010904//EN"
 "http://www.w3.org/TR/2001/REC-SVG-20010904/DTD/svg10.dtd">
<svg version="1.0" xmlns="http://www.w3.org/2000/svg"
 width="512.000000pt" height="512.000000pt" viewBox="0 0 512.000000 512.000000"
 preserveAspectRatio="xMidYMid meet">

<g transform="translate(0.000000,512.000000) scale(0.100000,-0.100000)"
fill="#000000" stroke="none">
<path d="M1827 4950 c-58 -15 -135 -57 -183 -102 -41 -38 -114 -162 -114 -194
0 -11 -29 -14 -141 -14 -80 0 -159 -5 -181 -12 -47 -14 -121 -76 -138 -117
l-12 -29 -216 -4 -217 -3 -67 -32 c-93 -44 -151 -100 -196 -191 l-37 -76 0
-1656 0 -1656 37 -76 c45 -91 103 -147 196 -191 l67 -32 805 -3 c443 -1 815 0
827 3 24 6 53 51 53 83 0 11 -9 30 -19 43 l-19 24 -809 5 c-764 5 -810 6 -843
24 -49 26 -88 64 -113 111 l-22 40 -3 1605 c-2 1246 0 1615 10 1650 16 58 96
141 154 158 26 7 108 12 218 12 l176 0 0 -96 c0 -53 5 -115 12 -138 16 -55 99
-138 154 -154 31 -9 215 -12 716 -12 769 0 736 -3 811 80 54 60 67 103 67 224
l0 98 193 -4 c211 -3 239 -10 298 -75 67 -71 63 -36 69 -709 5 -584 6 -613 24
-633 29 -32 88 -29 116 6 21 26 21 29 18 648 l-3 621 -37 76 c-45 91 -103 147
-196 191 l-67 32 -217 3 -216 4 -12 29 c-17 41 -91 103 -138 117 -22 7 -101
12 -181 12 -112 0 -141 3 -141 14 0 7 -16 45 -35 83 -66 132 -188 212 -333
219 -42 2 -94 -1 -115 -6z"/>
<path d="M825 3575 l-25 -24 0 -271 0 -271 25 -24 24 -25 271 0 271 0 24 25
25 24 0 271 0 271 -25 24 -24 25 -271 0 -271 0 -24 -25z m455 -295 l0 -160
-160 0 -160 0 0 160 0 160 160 0 160 0 0 -160z"/>
<path d="M1705 3575 c-16 -15 -25 -36 -25 -55 0 -19 9 -40 25 -55 l24 -25 631
0 631 0 24 25 c16 15 25 36 25 55 0 19 -9 40 -25 55 l-24 25 -631 0 -631 0
-24 -25z"/>
<path d="M1705 3095 c-16 -15 -25 -36 -25 -55 0 -19 9 -40 25 -55 l24 -25 631
0 631 0 24 25 c16 15 25 36 25 55 0 19 -9 40 -25 55 l-24 25 -631 0 -631 0
-24 -25z"/>
<path d="M3375 2714 c-96 -15 -200 -40 -275 -66 -429 -151 -738 -505 -836
-958 -26 -119 -26 -381 0 -500 100 -462 417 -818 859 -965 460 -153 969 -27
1309 323 196 202 313 436 352 703 60 408 -69 797 -363 1090 -182 182 -382 293
-631 350 -83 19 -346 33 -415 23z m308 -169 c667 -100 1098 -767 912 -1411
-172 -593 -791 -938 -1380 -769 -543 156 -889 695 -800 1245 100 612 662 1026
1268 935z"/>
<path d="M3353 2385 c-205 -37 -380 -132 -526 -284 -301 -315 -352 -790 -125
-1162 68 -111 206 -249 317 -317 373 -228 847 -176 1164 127 277 265 368 660
236 1025 -87 241 -305 465 -543 557 -167 65 -357 84 -523 54z m302 -160 c174
-31 300 -98 430 -229 73 -73 100 -109 138 -183 69 -134 90 -220 90 -373 0
-153 -21 -238 -90 -373 -38 -75 -64 -109 -143 -187 -78 -79 -112 -105 -187
-143 -135 -70 -221 -90 -373 -90 -94 0 -144 6 -201 21 -222 60 -412 216 -509
416 -65 137 -84 214 -83 356 0 145 18 224 85 360 45 93 62 115 147 201 81 80
111 103 190 142 179 90 325 113 506 82z"/>
<path d="M3469 2061 c-19 -15 -25 -32 -29 -82 l-5 -62 -49 -14 c-35 -10 -64
-29 -101 -67 -65 -65 -90 -130 -83 -220 6 -72 26 -116 77 -169 58 -62 102 -80
216 -86 111 -7 137 -17 165 -64 25 -41 25 -74 0 -114 -34 -56 -60 -63 -245
-63 -163 0 -166 0 -190 -25 -33 -32 -33 -78 0 -110 22 -23 32 -25 120 -25 l95
0 0 -55 c0 -46 4 -60 25 -80 29 -30 74 -32 106 -6 19 15 25 32 29 82 l5 62 49
14 c35 10 64 29 101 67 65 65 90 130 83 220 -6 72 -26 116 -77 169 -58 62
-102 80 -216 86 -111 7 -137 17 -165 64 -24 39 -25 68 -5 108 32 61 61 69 248
69 165 0 168 0 192 25 33 32 33 78 0 110 -22 23 -32 25 -120 25 l-95 0 0 55
c0 46 -4 60 -25 80 -29 30 -74 32 -106 6z"/>
<path d="M825 2615 l-25 -24 0 -271 0 -271 25 -24 24 -25 271 0 271 0 24 25
25 24 0 271 0 271 -25 24 -24 25 -271 0 -271 0 -24 -25z m455 -295 l0 -160
-160 0 -160 0 0 160 0 160 160 0 160 0 0 -160z"/>
<path d="M1705 2615 c-16 -15 -25 -36 -25 -55 0 -19 9 -40 25 -55 l24 -25 391
0 391 0 24 25 c16 15 25 36 25 55 0 19 -9 40 -25 55 l-24 25 -391 0 -391 0
-24 -25z"/>
<path d="M1705 2135 c-16 -15 -25 -36 -25 -55 0 -19 9 -40 25 -55 l24 -25 231
0 231 0 24 25 c16 15 25 36 25 55 0 19 -9 40 -25 55 l-24 25 -231 0 -231 0
-24 -25z"/>
<path d="M825 1655 l-25 -24 0 -271 0 -271 25 -24 24 -25 271 0 271 0 24 25
25 24 0 271 0 271 -25 24 -24 25 -271 0 -271 0 -24 -25z m455 -295 l0 -160
-160 0 -160 0 0 160 0 160 160 0 160 0 0 -160z"/>
<path d="M1705 1655 c-16 -15 -25 -36 -25 -55 0 -19 9 -40 25 -55 23 -24 28
-25 175 -25 147 0 152 1 175 25 16 15 25 36 25 55 0 19 -9 40 -25 55 -23 24
-28 25 -175 25 -147 0 -152 -1 -175 -25z"/>
<path d="M1705 1175 c-16 -15 -25 -36 -25 -55 0 -19 9 -40 25 -55 24 -25 26
-25 215 -25 189 0 191 0 215 25 16 15 25 36 25 55 0 19 -9 40 -25 55 -24 25
-26 25 -215 25 -189 0 -191 0 -215 -25z"/>
</g>
</svg>
